# xmcd CD database file
#
# Track frame offsets:
#	150
#	20265
#	49065
#	70590
#	93315
#	103965
#
# Disc length: 1540 seconds
#
# Revision: 0
# Processed by: cddbd v1.5.1PL2 Copyright (c) Steve Scherf et al.
# Submitted via: CDex 1.50Beta7
#
DISCID=45060206
DTITLE=村八分 - 村八分BOX (Disc6 1979年5月6日 京大西部講堂 「狂騒ロックコンサート」)
DYEAR=2005
DGENRE=Rock
TTITLE0=レッドレター (1979年5月6日 京大西部講堂 「狂騒ロックコンサート」)
TTITLE1=くたびれて (1979年5月6日 京大西部講堂 「狂騒ロックコンサート」)
TTITLE2=夢うつつ (1979年5月6日 京大西部講堂 「狂騒ロックコンサート」)
TTITLE3=水たまり (1979年5月6日 京大西部講堂 「狂騒ロックコンサート」)
TTITLE4=ツイスト＆シャウト (1979年5月6日 京大西部講堂 「狂騒ロックコンサート」)
TTITLE5=ディジー・ミス・リジー (1979年5月6日 京大西部講堂 「狂騒ロックコンサート」)
EXTD=YEAR: 2005
EXTT0=
EXTT1=
EXTT2=
EXTT3=
EXTT4=
EXTT5=
PLAYORDER=
